<?xml version="1.0" encoding="utf-8"?>
<!-- Generator: Adobe Illustrator 16.0.4, SVG Export Plug-In . SVG Version: 6.00 Build 0)  -->
<!DOCTYPE svg PUBLIC "-//W3C//DTD SVG 1.1//EN" "http://www.w3.org/Graphics/SVG/1.1/DTD/svg11.dtd">
<svg version="1.1" id="Layer_1" xmlns="http://www.w3.org/2000/svg" xmlns:xlink="http://www.w3.org/1999/xlink" x="0px" y="0px"
	 width="24.05px" height="20.111px" viewBox="0 0 24.05 20.111" enable-background="new 0 0 24.05 20.111" xml:space="preserve">
<path d="M24.049,8.113c0,3.8-3.799,5.2-3.799,5.2s-2,6.7-7.9,6.7c-2.1,0-3.2-0.3-4-0.3c-0.8,0-1.6,0.398-2,0.398
	c-0.5,0-3.4-2.1-4.5-4.8c-1.6-4.199-1.7-7.299-1.8-8.999c-0.2-2.3,0.2-3.7,1.3-4.8c0.7-0.601,1.6-1.4,2.6-1.5
	c1.1-0.101,1.5,0.399,2.3,1c0.7,0.5,1,0.7,1.1,1.3c0,0.2,0.1,0.7-0.3,0.7c0.1,0.3-0.2,0.899-0.7,0.8c0.1,0.4-0.5,0.7-0.8,0.7
	c0.1,0.3-0.5,0.399-0.7,0.399c-0.2,0-0.4,0-0.6-0.1c0,0-0.5-0.2-0.3-0.5c-0.3,0.6-1.1,0.3-0.8,1c0.2,0.5,0.8,2.4,2.2,3.7
	c1.7,1.5,2.2,2.899,2.7,4c0.2-1.2,1.1-5.3,6.3-4.5c-1-2.3,0.6-5.5,5.199-5.5C22.75,3.013,24.049,5.613,24.049,8.113z"/>
</svg>
