<?xml version="1.0" encoding="utf-8"?>
<!-- Generator: Adobe Illustrator 16.0.4, SVG Export Plug-In . SVG Version: 6.00 Build 0)  -->
<!DOCTYPE svg PUBLIC "-//W3C//DTD SVG 1.1//EN" "http://www.w3.org/Graphics/SVG/1.1/DTD/svg11.dtd">
<svg version="1.1" id="Layer_1" xmlns="http://www.w3.org/2000/svg" xmlns:xlink="http://www.w3.org/1999/xlink" x="0px" y="0px"
	 width="16px" height="22px" viewBox="0 0 16 22" enable-background="new 0 0 16 22" xml:space="preserve">
<path d="M5,3c0-1.657,1.343-3,3-3c1.656,0,3,1.343,3,3S9.656,6,8,6C6.343,6,5,4.657,5,3z M16,20.5c0,1.4-1.7,1.5-2.6,1.5
	c-0.801,0-6.7,0-7.2,0c-0.4,0-1-0.4-1-1.1c0-0.801,1-0.9,2.2-1.102c2-0.3,4.199-0.6,4.199-0.6l-3.1-1c0,0,0.1-0.102-1.3,0.398
	C5.4,19.2,4,19.6,4,20.8c0,1,0.8,1.2,0.8,1.2s-2,0-2.8,0c-1.2,0-2-0.6-2-1.5c0-1,0.8-1.6,1.9-2.5
	c0.747-0.598,2.105-1.417,2.747-1.794L4.5,15.5L2.2,16c0,0-0.1,0-0.2,0c-0.3,0-0.5-0.1-0.9-0.3c-0.2-0.3-0.3-0.7-0.2-1l2-6
	C3,8.4,3.3,8.2,3.6,8.1c0,0,2.3-1,4.3-1s4.3,1,4.3,1c0.3,0.1,0.6,0.3,0.7,0.6l2,6c0.199,0.3,0.1,0.7-0.2,1C14.6,15.9,14.3,16,14,16
	c-0.1,0-0.1,0-0.2,0l-2.3-0.5l-0.148,0.721c0.561,0.353,1.724,1.086,2.948,1.879C15.2,18.7,16,19.1,16,20.5z M6,13
	c0.7-1.4,1.4-2.3,2-2.3s1.3,1.1,2,2.3c0,0-0.7-4-2-4S6,13,6,13z"/>
</svg>
