<?xml version="1.0" encoding="utf-8"?>
<!-- Generator: Adobe Illustrator 16.0.4, SVG Export Plug-In . SVG Version: 6.00 Build 0)  -->
<!DOCTYPE svg PUBLIC "-//W3C//DTD SVG 1.1//EN" "http://www.w3.org/Graphics/SVG/1.1/DTD/svg11.dtd">
<svg version="1.1" id="Layer_1" xmlns="http://www.w3.org/2000/svg" xmlns:xlink="http://www.w3.org/1999/xlink" x="0px" y="0px"
	 width="24px" height="23px" viewBox="0 0 24 23" enable-background="new 0 0 24 23" xml:space="preserve">
<path d="M24,5.999c0,1.657-1.344,3-3,3s-3-1.343-3-3s1.344-3,3-3S24,4.342,24,5.999z M20.3,9.999
	c-0.128-0.042-0.292-0.087-0.469-0.132c-1.761-0.684-3.786-1.822-4.747-2.385l0.906-6.341c0.078-0.547-0.303-1.053-0.85-1.131
	c-0.547-0.074-1.054,0.302-1.132,0.848l-1,7c-0.056,0.394,0.126,0.784,0.466,0.992c0.025,0.016,0.162,0.1,0.381,0.23l3.444,2.719
	c-0.5,2.2-1.6,3.8-2.6,4.8l-5.307,0.38l-4.686-4.688c-0.391-0.391-1.023-0.391-1.414,0c-0.391,0.392-0.391,1.023,0,1.414l5,5
	C8.48,18.894,8.735,18.999,9,18.999l2.7,0.301l-3.625,1.592l-6.579-3.76c-0.478-0.274-1.09-0.107-1.364,0.371
	c-0.274,0.479-0.107,1.09,0.372,1.365l7,4C7.656,22.954,7.828,22.999,8,22.999c0.064,0,0.128-0.015,0.192-0.025L8.2,22.999
	c0,0,5-1,7.2-2c0.199-0.1,5.6-2.799,6.6-8.6C22.1,11.299,21.8,10.499,20.3,9.999z"/>
</svg>
