<?xml version="1.0" encoding="utf-8"?>
<!-- Generator: Adobe Illustrator 16.0.4, SVG Export Plug-In . SVG Version: 6.00 Build 0)  -->
<!DOCTYPE svg PUBLIC "-//W3C//DTD SVG 1.1//EN" "http://www.w3.org/Graphics/SVG/1.1/DTD/svg11.dtd">
<svg version="1.1" id="Layer_1" xmlns="http://www.w3.org/2000/svg" xmlns:xlink="http://www.w3.org/1999/xlink" x="0px" y="0px"
	 width="20px" height="22px" viewBox="0 0 20 22" enable-background="new 0 0 20 22" xml:space="preserve">
<path d="M7,3c0-1.657,1.343-3,3-3c1.656,0,3,1.343,3,3s-1.344,3-3,3C8.343,6,7,4.657,7,3z M19.581,16.188l-3.21-2.293l-1.406-5.158
	c-0.092-0.337-0.354-0.568-0.662-0.669L14.3,8C14.3,8,12,7,10,7c-2,0-4.3,1-4.3,1L5.697,8.066c-0.309,0.101-0.57,0.333-0.662,0.67
	l-1.406,5.157l-3.21,2.293c-0.45,0.32-0.554,0.945-0.233,1.396C0.381,17.854,0.689,18,1.001,18c0.201,0,0.404-0.061,0.58-0.188
	l3.5-2.5c0.188-0.133,0.323-0.328,0.384-0.551l0.012-0.045L6.5,12.3l0.465,3.722C6.784,16.125,4.854,17.238,3.9,18
	C2.8,18.9,2,19.5,2,20.5C2,21.4,2.8,22,4,22c0.8,0,2.8,0,2.8,0S6,21.8,6,20.8c0-1.2,1.4-1.6,3.2-2.2
	c1.399-0.5,1.299-0.398,1.299-0.398l3.1,1c0,0-2.199,0.3-4.199,0.6c-1.2,0.199-2.2,0.299-2.2,1.1c0,0.699,0.6,1.1,1,1.1
	c0.5,0,6.399,0,7.2,0c0.898,0,2.6-0.1,2.6-1.5s-0.8-1.8-1.7-2.4c-1.597-1.033-3.088-1.967-3.265-2.078L13.5,12.3l1.023,2.421
	l0.012,0.043c0.061,0.223,0.195,0.416,0.384,0.551l3.5,2.5C18.596,17.939,18.798,18,18.999,18c0.312,0,0.619-0.146,0.813-0.419
	C20.135,17.132,20.029,16.507,19.581,16.188z"/>
</svg>
