<?xml version="1.0" encoding="utf-8"?>
<!-- Generator: Adobe Illustrator 16.0.4, SVG Export Plug-In . SVG Version: 6.00 Build 0)  -->
<!DOCTYPE svg PUBLIC "-//W3C//DTD SVG 1.1//EN" "http://www.w3.org/Graphics/SVG/1.1/DTD/svg11.dtd">
<svg version="1.1" id="Layer_1" xmlns="http://www.w3.org/2000/svg" xmlns:xlink="http://www.w3.org/1999/xlink" x="0px" y="0px"
	 width="24.051px" height="24.1px" viewBox="0 0 24.051 24.1" enable-background="new 0 0 24.051 24.1" xml:space="preserve">
<path d="M8.525,23.999c-3.015,0-7.5-1.863-7.5-7c0-4.738,3.168-7.866,5.481-10.151C7.801,5.569,9.025,4.361,9.025,3.5
	c0-0.841-0.659-1.5-1.5-1.5c-0.653,0-1.03,0.074-1.63,0.569l0.53,0.53l-0.4,0.4c-0.2,0.3-0.9,0.1-1.3,0.5
	c-0.4,0.399-0.6,1.399-1.7,2.5c-0.7,0.7-1.8,0.7-2.5,0s-0.7-1.8,0-2.5c1.1-1.101,2.2-1.3,2.5-1.7c0.4-0.4,0.1-1,0.4-1.3l0.5-0.4
	l0.552,0.552C5.381,0.366,6.199,0,7.525,0c1.962,0,3.5,1.538,3.5,3.5c0,1.698-1.443,3.123-3.113,4.771
	c-2.291,2.263-4.887,4.826-4.887,8.728c0,4.102,3.97,5,5.5,5c4.068,0,6.5-2.541,6.5-5c0-1.654-1.346-3-3-3c-1.654,0-3,1.346-3,3
	c0,1.6,1.4,2.801,1.4,2.701c0,0-1.2,0.799-2.2,0.6c-0.6-0.6-1.2-1.801-1.2-3.301c0-2.756,2.243-5,5-5s5,2.244,5,5
	C17.025,20.439,13.846,23.999,8.525,23.999z M18.025,3.5c0.2,0.2,0.9,0,1.3,0.399c0.4,0.4,0.601,1.5,1.7,2.5c0.7,0.7,1.8,0.7,2.5,0
	c0.7-0.699,0.7-1.8,0-2.5c-1.1-1.1-2.2-1.3-2.5-1.699c-0.4-0.4-0.1-1-0.4-1.301l-0.5-0.3l-0.552,0.552
	C18.67,0.366,17.852,0,16.525,0c-1.963,0-3.5,1.538-3.5,3.5c0,1.698,1.441,3.123,3.113,4.771c2.291,2.263,4.887,4.826,4.887,8.728
	c0,2.529-1.428,3.73-2.626,4.295l0.006,0.014c-0.594,0.295-1.187,0.492-1.68,0.592c0,0-0.8,1.102-2.3,2.102
	c0.398,0,0.8,0.1,1.199,0.1c1.199,0,2.601-0.301,3.801-0.898l-0.078-0.148c2.369-1.16,3.678-3.301,3.678-6.055
	c0-4.738-3.168-7.866-5.48-10.151c-1.295-1.279-2.52-2.487-2.52-3.349c0-0.841,0.659-1.5,1.5-1.5c0.652,0,1.029,0.074,1.63,0.569
	l-0.53,0.53L18.025,3.5z"/>
</svg>
