<?xml version="1.0" encoding="utf-8"?>
<!-- Generator: Adobe Illustrator 16.0.4, SVG Export Plug-In . SVG Version: 6.00 Build 0)  -->
<!DOCTYPE svg PUBLIC "-//W3C//DTD SVG 1.1//EN" "http://www.w3.org/Graphics/SVG/1.1/DTD/svg11.dtd">
<svg version="1.1" id="Layer_1" xmlns="http://www.w3.org/2000/svg" xmlns:xlink="http://www.w3.org/1999/xlink" x="0px" y="0px"
	 width="23.996px" height="24px" viewBox="0 0 23.996 24" enable-background="new 0 0 23.996 24" xml:space="preserve">
<path d="M4.742,3.731L4.082,2.98C4.603,2.522,5.168,2.107,5.76,1.746L6.281,2.6C5.737,2.931,5.22,3.312,4.742,3.731z M9.824,1.215
	l-0.197-0.98c-0.681,0.136-1.354,0.333-2,0.586l0.364,0.932C8.583,1.521,9.2,1.34,9.824,1.215z M3.42,5.112L2.641,4.485
	C2.206,5.027,1.815,5.609,1.48,6.215l0.876,0.483C2.663,6.143,3.021,5.608,3.42,5.112z M1.583,8.446L0.637,8.123
	C0.414,8.779,0.246,9.46,0.139,10.147L1.127,10.3C1.225,9.671,1.378,9.047,1.583,8.446z M22.996,11.931l1-0.006
	c-0.004-0.698-0.067-1.396-0.19-2.075l-0.984,0.179C22.935,10.65,22.992,11.29,22.996,11.931z M11.997,1
	c0.641,0,1.279,0.055,1.902,0.164l0.173-0.985C13.394,0.06,12.695,0,11.995,0l-0.298,0.004l0.025,1L11.997,1z M23.256,7.84
	c-0.239-0.65-0.538-1.284-0.89-1.883L21.503,6.46c0.321,0.55,0.596,1.13,0.814,1.726L23.256,7.84z M0.791,16.301
	c0.249,0.646,0.556,1.276,0.914,1.872l0.857-0.516c-0.328-0.546-0.609-1.122-0.837-1.716L0.791,16.301z M17.976,1.594
	c-0.603-0.347-1.237-0.643-1.891-0.879l-0.34,0.94c0.598,0.216,1.18,0.487,1.732,0.805L17.976,1.594z M1,12.207l-1,0.018
	c0.012,0.694,0.085,1.391,0.217,2.072l0.981-0.189C1.078,13.482,1.011,12.843,1,12.207z M20.487,18.996l0.773,0.635
	c0.442-0.541,0.84-1.117,1.18-1.716l-0.869-0.494C21.261,17.971,20.896,18.5,20.487,18.996z M19.687,2.787l-0.642,0.768
	c0.487,0.407,0.942,0.86,1.354,1.347l0.764-0.646C20.715,3.725,20.218,3.231,19.687,2.787z M17.597,21.473l0.51,0.858
	c0.597-0.353,1.166-0.761,1.692-1.213l-0.649-0.761C18.665,20.773,18.144,21.146,17.597,21.473z M3.684,19.205l-0.756,0.654
	c0.454,0.522,0.958,1.012,1.497,1.449l0.631-0.774C4.561,20.132,4.1,19.686,3.684,19.205z M22.365,15.684l0.94,0.336
	c0.233-0.651,0.409-1.33,0.524-2.018l-0.985-0.166C22.739,14.465,22.578,15.087,22.365,15.684z M14.035,22.812l0.187,0.981
	c0.685-0.129,1.359-0.317,2.006-0.562l-0.352-0.937C15.283,22.52,14.664,22.693,14.035,22.812z M11.997,23
	c-0.591,0-1.186-0.048-1.769-0.143l-0.158,0.988C10.705,23.948,11.353,24,11.997,24l0.154-0.001l-0.021-1L11.997,23z M6.148,22.48
	c0.61,0.34,1.25,0.627,1.901,0.854l0.329-0.944c-0.597-0.207-1.184-0.472-1.743-0.783L6.148,22.48z M11.997,10.3
	c1.104,0,2-0.895,2-2c0-1.104-0.896-2-2-2c-1.104,0-2,0.896-2,2C9.997,9.405,10.893,10.3,11.997,10.3z M19.621,6.417
	c-0.322-0.178-0.729-0.062-0.907,0.259l-1.874,3.375c-0.706,0.229-2.889,0.883-4.843,0.883c-1.949,0-4.136-0.654-4.843-0.883
	L5.28,6.676C5.101,6.354,4.695,6.24,4.373,6.417C4.052,6.596,3.935,7.002,4.114,7.324l2,3.6c0.079,0.142,0.207,0.25,0.359,0.304
	c0.016,0.006,0.084,0.03,0.19,0.065L6.397,11.3l2.9,1.2l0.7,2.8c-1.2,2-1.9,3.2-1.9,3.2c-0.3,0.4-0.1,1.2,0.3,1.3
	c0.6,0.3,1,0,1.4-0.3l2.17-2.861c0.017,0.036,0.03,0.062,0.03,0.062l2.2,2.8c0.399,0.3,0.8,0.6,1.399,0.3
	c0.4-0.1,0.601-0.899,0.301-1.3c0,0-0.678-1.16-1.836-3.093l0.636-2.907l2.899-1.2c-0.033-0.017-0.088-0.032-0.15-0.045
	c0.037-0.013,0.066-0.023,0.074-0.026c0.152-0.055,0.279-0.163,0.358-0.304l2-3.6C20.06,7.002,19.942,6.596,19.621,6.417z"/>
</svg>
