<?xml version="1.0" encoding="utf-8"?>
<!-- Generator: Adobe Illustrator 16.0.4, SVG Export Plug-In . SVG Version: 6.00 Build 0)  -->
<!DOCTYPE svg PUBLIC "-//W3C//DTD SVG 1.1//EN" "http://www.w3.org/Graphics/SVG/1.1/DTD/svg11.dtd">
<svg version="1.1" id="Layer_1" xmlns="http://www.w3.org/2000/svg" xmlns:xlink="http://www.w3.org/1999/xlink" x="0px" y="0px"
	 width="24px" height="24px" viewBox="0 0 24 24" enable-background="new 0 0 24 24" xml:space="preserve">
<path d="M12,0C5.4,0,0,5.4,0,12c0,0.081,0.27,0.611,1.1,1.025L6.046,23.71C6.131,23.893,6.312,24,6.5,24
	c0.07,0,0.142-0.016,0.209-0.046c0.25-0.116,0.36-0.414,0.244-0.664l-4.562-9.854C2.594,13.475,2.797,13.5,3,13.5
	c0.8,0,1.3-0.3,1.3-0.3s0.464,0.925,1.729,1.284l1.983,9.121C8.062,23.84,8.27,24,8.5,24c0.035,0,0.071-0.004,0.107-0.012
	c0.27-0.059,0.441-0.324,0.382-0.596L7.077,14.6c0.009,0,0.014,0,0.023,0c1.224,0,1.989-0.533,2.229-0.668
	C9.558,14.17,10.266,15,12,15c0,0,0,0,0.1,0c1.9,0,2.8-1.1,2.8-1.1s0.787,0.6,2.025,0.683l-1.914,8.812
	c-0.06,0.271,0.111,0.535,0.381,0.595C15.43,23.996,15.465,24,15.5,24c0.23,0,0.438-0.16,0.488-0.395l1.97-9.062
	C19.368,14.256,20,13.2,20,13.2s0.5,0.3,1.3,0.3c0.085,0,0.181-0.002,0.281-0.006l-4.535,9.796c-0.114,0.25-0.007,0.548,0.244,0.664
	C17.357,23.984,17.43,24,17.5,24c0.188,0,0.369-0.107,0.454-0.29l4.885-10.552C23.754,12.721,24,12,24,12v-0.1C23.9,5.3,18.6,0,12,0
	z M7.1,13.6c-0.1,0-0.2,0-0.4,0c-1-0.1-1.5-0.898-1.5-0.898l-0.49-0.882c0.079-1.925,0.797-8.234,6.535-10.703
	c-2.76,4.147-2.504,9.407-2.18,11.665L8.7,13.1C8.7,13.1,8.1,13.6,7.1,13.6z M17.3,13.5c-0.1,0-0.2,0-0.3,0c-1,0-1.6-0.5-1.6-0.5
	l-0.534-0.4c0.058-2.352-0.118-7.455-2.327-11.57c5.818,2.395,6.648,8.523,6.749,10.691L18.8,12.6C18.8,12.6,18.4,13.4,17.3,13.5z"
	/>
</svg>
