<?xml version="1.0" encoding="utf-8"?>
<!-- Generator: Adobe Illustrator 16.0.4, SVG Export Plug-In . SVG Version: 6.00 Build 0)  -->
<!DOCTYPE svg PUBLIC "-//W3C//DTD SVG 1.1//EN" "http://www.w3.org/Graphics/SVG/1.1/DTD/svg11.dtd">
<svg version="1.1" id="Layer_1" xmlns="http://www.w3.org/2000/svg" xmlns:xlink="http://www.w3.org/1999/xlink" x="0px" y="0px"
	 width="20px" height="24px" viewBox="0 0 20 24" enable-background="new 0 0 20 24" xml:space="preserve">
<path d="M10,6C8.343,6,7,4.657,7,3s1.343-3,3-3c1.656,0,3,1.343,3,3S11.656,6,10,6z M1,24h18c0,0-1.5-1-9-1S1,24,1,24z
	 M19.395,14.081l-3.057-1.31l-1.373-5.036c-0.092-0.337-0.354-0.568-0.662-0.669L14.3,7c0,0-2.3-1-4.3-1S5.7,7,5.7,7L5.697,7.067
	C5.388,7.168,5.127,7.4,5.035,7.737l-1.373,5.035l-3.056,1.311c-0.507,0.218-0.743,0.807-0.525,1.312C0.243,15.773,0.612,16,1,16
	c0.131,0,0.265-0.025,0.394-0.081l3.5-1.5c0.238-0.103,0.406-0.302,0.507-0.536L5.4,13.9l0.033-0.078
	c0.008-0.021,0.026-0.037,0.032-0.061l0.012-0.045L6.5,11.3l0.464,3.709L5,15.5l3.391,2.373L3.5,15.7c-1.1-0.5-2,0.2-2.2,0.7
	c-0.2,0.5-0.2,1.6,0.9,2l4.68,1.574L6.6,20.1C6.1,20.3,5.9,20.9,6.1,21.4C6.2,21.8,6.6,22,7,22c0.1,0,0.2,0,0.3-0.1l2.612-0.904
	L12.6,21.9C12.7,22,12.8,22,12.9,22c0.398,0,0.8-0.2,1-0.6c0.199-0.5,0-1.102-0.5-1.301l-0.395-0.176L17.7,18.3
	c1.2-0.3,1.2-1.399,1-1.899s-1.101-1.199-2.2-0.699l-4.891,2.174L15,15.5l-1.963-0.491L13.5,11.3l1.023,2.421l0.012,0.043
	c0.006,0.021,0.021,0.034,0.029,0.055L14.6,13.9v-0.02c0.101,0.235,0.27,0.436,0.508,0.537l3.5,1.5C18.734,15.975,18.868,16,19,16
	c0.389,0,0.757-0.227,0.919-0.605C20.137,14.887,19.9,14.299,19.395,14.081z"/>
</svg>
