<?xml version="1.0" encoding="utf-8"?>
<!-- Generator: Adobe Illustrator 16.0.4, SVG Export Plug-In . SVG Version: 6.00 Build 0)  -->
<!DOCTYPE svg PUBLIC "-//W3C//DTD SVG 1.1//EN" "http://www.w3.org/Graphics/SVG/1.1/DTD/svg11.dtd">
<svg version="1.1" id="Layer_1" xmlns="http://www.w3.org/2000/svg" xmlns:xlink="http://www.w3.org/1999/xlink" x="0px" y="0px"
	 width="24px" height="24px" viewBox="0 0 24 24" enable-background="new 0 0 24 24" xml:space="preserve">
<path d="M24,1c0,0.6-1.3,1-3,1s-3-0.4-3-1s1.3-1,3-1S24,0.4,24,1z M9,5c1.104,0,2-0.896,2-2s-0.896-2-2-2S7,1.896,7,3S7.896,5,9,5z
	 M16.447,0.105c-0.494-0.248-1.096-0.047-1.342,0.447l-1.91,3.821l-0.202,0.174L10.701,6H7L6.998,6.019
	c-0.19,0-0.382,0.036-0.552,0.15l-3,2c-0.11,0.073-0.204,0.167-0.277,0.277l-2,3c-0.306,0.459-0.182,1.081,0.277,1.388
	C1.617,12.946,1.81,13.001,2,13.001c0.323,0,0.64-0.156,0.833-0.445l1.889-2.833l1.904-1.27l-0.68,4.453l-1.689,3.718l-3.627,1.45
	c-0.513,0.205-0.763,0.787-0.558,1.3C0.229,19.765,0.604,20.001,1,20.001c0.124,0,0.249-0.021,0.371-0.07l4-1.601
	c0.18-0.072,0.319-0.205,0.43-0.361L5.8,18.001l2.4-3.7L9,17.574v0.149l-2.857,4.762c-0.284,0.475-0.131,1.089,0.343,1.373
	c0.16,0.097,0.338,0.143,0.513,0.143c0.34,0,0.671-0.173,0.858-0.484l3-5C10.952,18.36,11,18.183,11,18.001v-5l0.989-4.946
	l0.952-0.821L14.7,5.8l-0.034-0.059c0.093-0.083,0.172-0.182,0.229-0.294l2-4C17.143,0.954,16.941,0.354,16.447,0.105z"/>
</svg>
