<?xml version="1.0" encoding="utf-8"?>
<!-- Generator: Adobe Illustrator 16.0.4, SVG Export Plug-In . SVG Version: 6.00 Build 0)  -->
<!DOCTYPE svg PUBLIC "-//W3C//DTD SVG 1.1//EN" "http://www.w3.org/Graphics/SVG/1.1/DTD/svg11.dtd">
<svg version="1.1" id="Layer_1" xmlns="http://www.w3.org/2000/svg" xmlns:xlink="http://www.w3.org/1999/xlink" x="0px" y="0px"
	 width="24px" height="24px" viewBox="0 0 24 24" enable-background="new 0 0 24 24" xml:space="preserve">
<path d="M12,0C5.4,0,0,5.4,0,12c0,6.6,5.4,12,12,12c6.6,0,12-5.4,12-12C24,5.4,18.6,0,12,0z M12,21c-5,0-9-4-9-9s4-9,9-9s9,4,9,9
	S17,21,12,21z M17.8,14L15.9,12.8c0-0.2,0.1-0.5,0.1-0.7c0-0.2,0-0.5-0.1-0.7l1.898-1.2c0.602-0.4,1.301-0.2,1.7,0.4
	c-0.3-1.6-1.2-3.1-2.399-4.1c0.301,0.6,0.199,1.3-0.5,1.6l-2,1C14.2,8.8,13.8,8.6,13.4,8.4L13.2,6c0-0.7,0.6-1.3,1.2-1.2
	C13.6,4.5,12.8,4.4,11.9,4.4c-0.8,0-1.6,0.1-2.4,0.4c0.7,0,1.2,0.5,1.2,1.2l-0.1,2.2C10.2,8.4,9.8,8.7,9.4,9l-2-1
	C6.8,7.7,6.6,6.9,6.9,6.3c-1.2,1.1-2,2.5-2.4,4.1C4.8,9.8,5.6,9.6,6.2,10l1.9,1.2C8,11.5,8,11.8,8,12s0,0.5,0.1,0.7l-1.9,1.2
	C5.6,14.3,4.8,14.1,4.5,13.5c0.3,1.6,1.2,3.1,2.4,4.1C6.6,17,6.8,16.3,7.4,16l2-1c0.4,0.3,0.8,0.6,1.3,0.7l0.1,2.2
	c0,0.699-0.5,1.3-1.2,1.199c0.7,0.199,1.5,0.399,2.4,0.399c0.9,0,1.7-0.101,2.5-0.399c-0.7,0-1.2-0.5-1.2-1.199l0.101-2.2
	c0.399-0.2,0.801-0.4,1.199-0.7l2,1c0.602,0.3,0.801,1.1,0.5,1.6c1.2-1.1,2.102-2.5,2.4-4.1C19.1,14.1,18.4,14.4,17.8,14z M12,13.9
	c-1.1,0-1.9-0.9-1.9-1.9c0-1.1,0.9-1.9,1.9-1.9s1.9,0.9,1.9,1.9C13.9,13.1,13.1,13.9,12,13.9z"/>
</svg>
