<?xml version="1.0" encoding="utf-8"?>
<!-- Generator: Adobe Illustrator 16.0.4, SVG Export Plug-In . SVG Version: 6.00 Build 0)  -->
<!DOCTYPE svg PUBLIC "-//W3C//DTD SVG 1.1//EN" "http://www.w3.org/Graphics/SVG/1.1/DTD/svg11.dtd">
<svg version="1.1" id="Layer_1" xmlns="http://www.w3.org/2000/svg" xmlns:xlink="http://www.w3.org/1999/xlink" x="0px" y="0px"
	 width="15.203px" height="24px" viewBox="0 0 15.203 24" enable-background="new 0 0 15.203 24" xml:space="preserve">
<path d="M7.103,7.9c-0.1,0.3,1.5,1.1,1.801,3.3c0.199,1.3-0.9,3.399-0.4,6.7c0.5,3.199,1.5,3.699,1.5,4.8c0,0.6-0.4,1.3-1.4,1.3
	s-1.898-0.3-2.3-0.3c-1,0-0.899,0.3-3.7,0.3c-0.4,0-0.7,0-0.9-0.2c-0.3,0.101-0.5,0.2-0.8,0.2c-0.5,0-0.9-0.3-0.9-0.8
	c0-0.2-0.1-0.3,0.9-0.4c0.4-0.1,1.1-0.3,2.1-0.7c1-0.398,1.8-0.3,2.4-1.3c0.5-1-0.2-3.399-1-5.5c-0.3-0.899-0.9-1.899-1.101-2.9
	c-0.3-1.1-0.1-2.3-0.7-3.2c-0.8-1.3-0.8-2.4,0.2-3.4c0.4-2,2.101-4.8,3.2-5.8v0.1h9.2c-1.101,3.1-5.601,5.8-6.601,6.3
	C7.803,6.8,7.203,7.5,7.103,7.9z"/>
</svg>
