<?xml version="1.0" encoding="utf-8"?>
<!-- Generator: Adobe Illustrator 16.0.4, SVG Export Plug-In . SVG Version: 6.00 Build 0)  -->
<!DOCTYPE svg PUBLIC "-//W3C//DTD SVG 1.1//EN" "http://www.w3.org/Graphics/SVG/1.1/DTD/svg11.dtd">
<svg version="1.1" id="Layer_1" xmlns="http://www.w3.org/2000/svg" xmlns:xlink="http://www.w3.org/1999/xlink" x="0px" y="0px"
	 width="20.4px" height="24px" viewBox="0 0 20.4 24" enable-background="new 0 0 20.4 24" xml:space="preserve">
<path d="M15.308,9.857L15.5,9.9L20.4,0h-1.9l-4.523,8.955C12.849,8.347,11.563,8,10.2,8c-0.119,0-0.234,0.013-0.353,0.018L13.9,0H12
	L7.867,8.351C7.338,8.514,6.83,8.731,6.351,8.996L1.9,0H0l4.948,9.988C3.269,11.458,2.2,13.607,2.2,16c0,4.4,3.601,8,8,8
	c4.4,0,8-3.6,8-8C18.2,13.538,17.072,11.328,15.308,9.857z M10.2,22c-3.3,0-6-2.7-6-6s2.7-6,6-6s6,2.7,6,6S13.5,22,10.2,22z
	 M8.6,4.1L6.5,0h1.9l1,2.2L8.6,4.1z M9.6,12h1.6v8h-2v-5H7.7v-1.3C8.9,13.7,9.5,12.5,9.6,12z"/>
</svg>
