<?xml version="1.0" encoding="utf-8"?>
<!-- Generator: Adobe Illustrator 16.0.4, SVG Export Plug-In . SVG Version: 6.00 Build 0)  -->
<!DOCTYPE svg PUBLIC "-//W3C//DTD SVG 1.1//EN" "http://www.w3.org/Graphics/SVG/1.1/DTD/svg11.dtd">
<svg version="1.1" id="Layer_1" xmlns="http://www.w3.org/2000/svg" xmlns:xlink="http://www.w3.org/1999/xlink" x="0px" y="0px"
	 width="23px" height="24px" viewBox="0 0 23 24" enable-background="new 0 0 23 24" xml:space="preserve">
<path d="M14,2.5C14,1.119,15.119,0,16.5,0S19,1.119,19,2.5S17.881,5,16.5,5S14,3.881,14,2.5z M22,10h-3.492l-2.701-3.69
	c-0.037-0.051-0.09-0.081-0.134-0.123C15.627,6.11,15.573,6.043,15.5,6l-2-1c-0.041-0.028-0.094-0.039-0.152-0.042L9.43,3.097
	C9.092,2.937,8.697,2.977,8.4,3.2l-4,3C3.958,6.531,3.869,7.158,4.2,7.6C4.396,7.862,4.697,8,5.001,8C5.209,8,5.42,7.935,5.6,7.8
	l3.517-2.637l2.656,1.261L8.6,11.5c-0.5,0.8-0.3,2,0.6,2.5l4.502,3.116l0.081,0.081l-2.678,5.354
	c-0.248,0.494-0.047,1.095,0.446,1.343C11.695,23.966,11.85,24,11.999,24c0.367,0,0.72-0.202,0.896-0.553l3-6
	c0.192-0.385,0.117-0.85-0.188-1.154l-3.119-3.119l2.573-4.361l2.032,2.777C17.381,11.848,17.682,12,18,12h4c0.553,0,1-0.448,1-1
	S22.553,10,22,10z M7.6,13.6L6.4,16H1c-0.552,0-1,0.447-1,1s0.448,1,1,1h6c0.256,0,0.508-0.081,0.702-0.289
	c0.004-0.005,0.008-0.01,0.013-0.016c0.029-0.031,0.06-0.059,0.085-0.096l2-2l-1.2-0.801C8.2,14.5,7.8,14.1,7.6,13.6z"/>
</svg>
