<?xml version="1.0" encoding="utf-8"?>
<!-- Generator: Adobe Illustrator 16.0.4, SVG Export Plug-In . SVG Version: 6.00 Build 0)  -->
<!DOCTYPE svg PUBLIC "-//W3C//DTD SVG 1.1//EN" "http://www.w3.org/Graphics/SVG/1.1/DTD/svg11.dtd">
<svg version="1.1" id="Layer_1" xmlns="http://www.w3.org/2000/svg" xmlns:xlink="http://www.w3.org/1999/xlink" x="0px" y="0px"
	 width="24px" height="21px" viewBox="0 0 24 21" enable-background="new 0 0 24 21" xml:space="preserve">
<path d="M0,11.7C0,15.6,1.5,18,3,18s1.8-2,3-2c1.5,0,1.6,5,5.2,5c5,0,9.899-4.4,9.899-6.3c0-2,0-4.7,0-4.7C5.3,10,0,7,0,7
	S0,11.2,0,11.7z M2,9.9c3,0.899,8.3,2,17,2.1v2.6C18.6,15.7,15,19,11.1,19c-0.8,0-1.2-0.6-1.9-2.1C8.6,15.7,7.8,14,6,14
	c-1.5,0-2.3,1-2.8,1.6C3.2,15.7,3.1,15.7,3,15.8c-0.4-0.5-1-1.899-1-4.2V9.9z M24,7.7c0,4.5-2,6.3-2,6.3v-4c1.4-2.3,1.5-9-3-9
	c-1.8,0-2.7,3-7,3C8.7,4,4.6,2,2.6,6.3L0.4,5.5C4-0.4,8.8,3,12,3c4.6,0,3.9-3,7-3C21.8,0,24,2.8,24,7.7z"/>
</svg>
