<?xml version="1.0" encoding="utf-8"?>
<!-- Generator: Adobe Illustrator 16.0.4, SVG Export Plug-In . SVG Version: 6.00 Build 0)  -->
<!DOCTYPE svg PUBLIC "-//W3C//DTD SVG 1.1//EN" "http://www.w3.org/Graphics/SVG/1.1/DTD/svg11.dtd">
<svg version="1.1" id="Layer_1" xmlns="http://www.w3.org/2000/svg" xmlns:xlink="http://www.w3.org/1999/xlink" x="0px" y="0px"
	 width="24.085px" height="24px" viewBox="0 0 24.085 24" enable-background="new 0 0 24.085 24" xml:space="preserve">
<path d="M17.792,10.4c0.3,0.3,0.4,0.9,0,1.3h-0.2c-0.399,0.4-0.8,0.3-1.3,0c-0.328-0.247-0.268-0.505-1.115-1.471l-2.023,2.024
	c0.853,0.779,1.315,0.901,1.639,1.146c0.301,0.301,0.4,0.899,0,1.301h-0.199c-0.398,0.398-0.801,0.3-1.301,0
	c-0.327-0.246-0.268-0.506-1.114-1.471l-2.024,2.023c0.853,0.779,1.315,0.902,1.64,1.146c0.3,0.3,0.4,0.898,0,1.3h-0.2
	c-0.4,0.399-0.8,0.3-1.3,0c-0.328-0.246-0.268-0.505-1.115-1.472l-1.478,1.479l-1.414-1.414l1.482-1.48
	c-0.971-0.873-1.23-0.865-1.477-1.11c-0.4-0.4-0.4-0.9,0-1.3l0.1-0.1c0.3-0.4,0.9-0.3,1.3,0c0.311,0.233,0.448,0.653,1.101,1.484
	l1.974-1.973c-0.969-0.873-1.228-0.864-1.475-1.111c-0.4-0.4-0.4-0.9,0-1.3l0.1-0.1c0.3-0.4,0.9-0.3,1.3,0
	c0.311,0.233,0.448,0.654,1.101,1.485l1.974-1.974c-0.969-0.873-1.229-0.864-1.475-1.111c-0.4-0.4-0.4-0.9,0-1.3l0.1-0.1
	c0.301-0.4,0.898-0.3,1.301,0c0.311,0.233,0.446,0.654,1.102,1.485l1.49-1.492l1.414,1.414l-1.547,1.547
	C17.006,10.033,17.469,10.157,17.792,10.4z M18.693,18.6C14.892,22.4,9.892,24,6.093,24c-2.1,0-3.8-0.5-4.7-1.3
	c-2.5-2.5-1.9-11.4,4-17.3c3.7-3.8,8.8-5.4,12.599-5.4c2,0,3.801,0.5,4.701,1.3C25.193,3.8,24.592,12.7,18.693,18.6z M21.789,3.617
	l-3.09,3.09l-1.414-1.414l3.099-3.098C19.822,2.021,19.031,1.9,17.992,1.9c-3.199,0-7.7,1.3-11.2,4.8
	c-4.553,4.553-5.337,10.94-4.518,13.604l3.011-3.013l1.414,1.414l-3.073,3.073c0.564,0.188,1.38,0.32,2.467,0.32
	c3.1,0,7.699-1.3,11.199-4.8C21.888,12.704,22.645,6.235,21.789,3.617z"/>
</svg>
