<?xml version="1.0" encoding="utf-8"?>
<!-- Generator: Adobe Illustrator 16.0.4, SVG Export Plug-In . SVG Version: 6.00 Build 0)  -->
<!DOCTYPE svg PUBLIC "-//W3C//DTD SVG 1.1//EN" "http://www.w3.org/Graphics/SVG/1.1/DTD/svg11.dtd">
<svg version="1.1" id="Layer_1" xmlns="http://www.w3.org/2000/svg" xmlns:xlink="http://www.w3.org/1999/xlink" x="0px" y="0px"
	 width="12px" height="24px" viewBox="0 0 12 24" enable-background="new 0 0 12 24" xml:space="preserve">
<path d="M6,3c1.104,0,2,0.896,2,2S7.104,7,6,7S4,6.104,4,5S4.896,3,6,3z M11.447,15.105l-0.307-0.153L8.3,12.8l0.691-3.455L11.8,5.6
	c0.267-0.355,0.267-0.845,0-1.2l-3-4C8.468-0.041,7.841-0.132,7.4,0.2C6.959,0.531,6.869,1.158,7.201,1.6L9.75,5L8.175,7.1
	C7.65,7.55,6.9,8,6,8C4.93,8,3.77,6.889,3.186,6.247L2.25,5L4.8,1.6c0.332-0.442,0.242-1.069-0.2-1.4
	C4.158-0.132,3.532-0.041,3.2,0.4l-3,4c-0.267,0.355-0.267,0.845,0,1.2L3,9.333C3,10.234,3,12.675,3,13v5l0.02,0.018
	c0.002,0.061-0.012,0.119,0,0.18l1,5C4.113,23.672,4.532,24,4.999,24c0.065,0,0.131-0.006,0.196-0.02
	c0.543-0.108,0.894-0.635,0.785-1.178L5.029,18.05L6,15l2.938,1.296L6.4,18.2c-0.442,0.331-0.531,0.958-0.2,1.399
	c0.196,0.262,0.495,0.399,0.801,0.399c0.209,0,0.419-0.065,0.599-0.2l4-3c0.277-0.208,0.428-0.545,0.396-0.89
	C11.964,15.564,11.757,15.261,11.447,15.105z"/>
</svg>
