<?xml version="1.0" encoding="utf-8"?>
<!-- Generator: Adobe Illustrator 16.0.4, SVG Export Plug-In . SVG Version: 6.00 Build 0)  -->
<!DOCTYPE svg PUBLIC "-//W3C//DTD SVG 1.1//EN" "http://www.w3.org/Graphics/SVG/1.1/DTD/svg11.dtd">
<svg version="1.1" id="Layer_1" xmlns="http://www.w3.org/2000/svg" xmlns:xlink="http://www.w3.org/1999/xlink" x="0px" y="0px"
	 width="24px" height="22px" viewBox="0 0 24 22" enable-background="new 0 0 24 22" xml:space="preserve">
<path d="M13.625,12.219c0.292,0.234,0.43,0.61,0.355,0.979l-1,5C12.887,18.672,12.468,19,12.001,19c-0.065,0-0.131-0.006-0.197-0.02
	c-0.542-0.108-0.893-0.635-0.784-1.178l0.866-4.332L6.9,10.7C5.8,10,5.7,8.3,6.8,7.5C8,6.6,9,5.9,9.8,5.3C10.9,4.5,11.7,4,12.5,4
	c0.326,0,0.453,0,0.5,0c0.256,0,0.512,0.098,0.707,0.293L17.414,8H21c0.553,0,1,0.448,1,1s-0.447,1-1,1h-4
	c-0.266,0-0.52-0.105-0.707-0.293l-0.635-0.635L13.8,7.5l-3.2,2.1l2.806,2.443L13.625,12.219z M16.5,5C17.9,5,19,3.9,19,2.5
	S17.9,0,16.5,0C13.3,0,11,3,11,3C15.6,1.9,15.1,5,16.5,5z M24,17.5c0,2.5-2,4.5-4.5,4.5S15,20,15,17.5s2-4.5,4.5-4.5S24,15,24,17.5z
	 M22.5,17.5c0-1.7-1.3-3-3-3s-3,1.3-3,3s1.3,3,3,3S22.5,19.2,22.5,17.5z M9,17.5C9,20,7,22,4.5,22S0,20,0,17.5S2,13,4.5,13
	S9,15,9,17.5z M6,17.5C6,16.7,5.3,16,4.5,16S3,16.7,3,17.5S3.7,19,4.5,19S6,18.3,6,17.5z"/>
</svg>
