<?xml version="1.0" encoding="utf-8"?>
<!-- Generator: Adobe Illustrator 16.0.4, SVG Export Plug-In . SVG Version: 6.00 Build 0)  -->
<!DOCTYPE svg PUBLIC "-//W3C//DTD SVG 1.1//EN" "http://www.w3.org/Graphics/SVG/1.1/DTD/svg11.dtd">
<svg version="1.1" id="Layer_1" xmlns="http://www.w3.org/2000/svg" xmlns:xlink="http://www.w3.org/1999/xlink" x="0px" y="0px"
	 width="23.996px" height="24.046px" viewBox="0 0 23.996 24.046" enable-background="new 0 0 23.996 24.046" xml:space="preserve">
<path d="M12.012,6.046c1.104,0,2,0.896,2,2s-0.896,2-2,2c-1.104,0-2-0.896-2-2S10.907,6.046,12.012,6.046z M23.996,0.606
	l-1.412,8.28l-3.549-0.605l0.642-3.76c-0.488-0.066-1.039-0.133-1.665-0.194v4.719c0,0.177-0.062,0.34-0.146,0.49
	c0.018,0.038,0.039,0.08,0.047,0.11l-2.399,3.5l-0.601,1.9l3.398,1c0,0-0.043,0.008-0.105,0.02l0.049,0.012
	c0.506,0.127,0.83,0.619,0.744,1.135l-1,6c-0.082,0.486-0.506,0.834-0.985,0.834c-0.056,0-0.108-0.004-0.165-0.014
	c-0.545-0.092-0.913-0.605-0.822-1.15l0.838-5.02l-4.452,0.084l-3.367,2.48l-0.325,0.326c-0.059,0.057-0.123,0.107-0.192,0.148l-5,3
	c-0.161,0.1-0.339,0.145-0.514,0.145c-0.34,0-0.671-0.172-0.858-0.484c-0.284-0.475-0.131-1.088,0.343-1.373l4.417-2.648
	l3.098-3.494l-1-3l-2.8-3.4l0.007-0.023c-0.123-0.17-0.207-0.365-0.207-0.577V4.328C5.369,4.39,4.807,4.458,4.311,4.525l0.652,3.822
	l-3.55,0.605L0,0.672l3.55-0.605l0.592,3.468c0.631-0.086,1.38-0.173,2.242-0.249c0.173-0.143,0.386-0.24,0.628-0.24
	c0.185,0,0.348,0.063,0.496,0.15c1.302-0.089,2.804-0.15,4.504-0.15s3.202,0.061,4.504,0.15c0.148-0.087,0.311-0.15,0.496-0.15
	c0.242,0,0.455,0.097,0.628,0.24c0.847,0.075,1.583,0.16,2.206,0.244L20.449,0L23.996,0.606z M16.012,4.169
	c-1.182-0.074-2.516-0.123-4-0.123c-1.485,0-2.818,0.049-4,0.123v4.449l3,2.428h1h1l3-2.432V4.169z"/>
</svg>
