<?xml version="1.0" encoding="utf-8"?>
<!-- Generator: Adobe Illustrator 16.0.4, SVG Export Plug-In . SVG Version: 6.00 Build 0)  -->
<!DOCTYPE svg PUBLIC "-//W3C//DTD SVG 1.1//EN" "http://www.w3.org/Graphics/SVG/1.1/DTD/svg11.dtd">
<svg version="1.1" id="Layer_1" xmlns="http://www.w3.org/2000/svg" xmlns:xlink="http://www.w3.org/1999/xlink" x="0px" y="0px"
	 width="23.994px" height="23.993px" viewBox="0 0 23.994 23.993" enable-background="new 0 0 23.994 23.993" xml:space="preserve">
<path d="M22.294,1.7c-1.199-1.1-2.699-1.7-4.4-1.7c-1.399,0-2.801,0.4-4.199,1.1c0.4,0.6,0.6,1.2,0.8,1.9c1-0.7,2.2-1,3.399-1
	c0.899,0,2.101,0.2,3,1.1c2,2,1.199,6.2-1.699,9.1c-1.801,1.8-4,2.8-6.1,2.8c-0.899,0-2.101-0.201-3-1.101c-1-1-1.3-2.699-1-4.399
	c-0.1,0-0.1,0-0.2,0c-0.6,0-1.3-0.1-1.8-0.3c-0.221,1.016-0.235,2.027-0.066,2.974C7.06,13.637,6.908,16.001,5.994,17l-1.052,1.053
	L4.894,18c-0.3-0.301-0.8-0.301-1.1,0l-3.7,3.699c-0.2,0.301-0.1,1.1,0.5,1.7s1.4,0.7,1.6,0.5l3.7-3.7c0.3-0.3,0.3-0.8,0-1.101
	L6.994,18c0.942-0.942,3.105-1.143,4.577-1.138C12.027,16.951,12.501,17,12.994,17c2.5,0,5.3-1.201,7.5-3.4
	C24.394,9.899,25.095,4.5,22.294,1.7z M8.194,15.798c0.064-0.256,0.118-0.516,0.164-0.773c0.079,0.092,0.15,0.188,0.236,0.273
	c0.121,0.121,0.247,0.229,0.374,0.336C8.707,15.679,8.448,15.731,8.194,15.798z M10.394,2.6c-1-1-1.2-2-1.2-2.6c1,0,1.9,0.4,2.7,1.2
	c0.701,0.7,1.1,1.7,1.1,2.6C12.394,3.799,11.394,3.5,10.394,2.6z M6.194,6.899c-0.8-0.8-1.2-1.7-1.2-2.7c0.7,0,1.6,0.2,2.6,1.2
	c0.9,1,1.2,2,1.2,2.6C7.894,8,6.994,7.7,6.194,6.899z M8.194,4.799c-1.2-1.1-2.4-1.4-3.1-1.4c0.1-0.8,0.5-1.6,1.1-2.2
	c0.6-0.6,1.3-1,2.1-1.1c0.1,0.7,0.4,1.9,1.6,3c1.1,1.2,2.3,1.5,3.1,1.5c-0.101,0.8-0.5,1.6-1.1,2.2c-0.6,0.6-1.4,1-2.2,1.1
	C9.594,7.2,9.294,6,8.194,4.799z"/>
</svg>
