<?xml version="1.0" encoding="utf-8"?>
<!-- Generator: Adobe Illustrator 16.0.4, SVG Export Plug-In . SVG Version: 6.00 Build 0)  -->
<!DOCTYPE svg PUBLIC "-//W3C//DTD SVG 1.1//EN" "http://www.w3.org/Graphics/SVG/1.1/DTD/svg11.dtd">
<svg version="1.1" id="Layer_1" xmlns="http://www.w3.org/2000/svg" xmlns:xlink="http://www.w3.org/1999/xlink" x="0px" y="0px"
	 width="17.029px" height="24px" viewBox="0 0 17.029 24" enable-background="new 0 0 17.029 24" xml:space="preserve">
<path d="M7.028,2.5c0-1.381,1.119-2.5,2.5-2.5s2.5,1.119,2.5,2.5S10.909,5,9.528,5S7.028,3.881,7.028,2.5z M3.828,11
	c0.301-0.9,1.801-6,1.801-6c-0.9,0-2.2-0.1-3.4,0.9s-2,2.7-2.2,4c-0.2,1.2,0.7,1.6,1.7,1.9C2.728,12.1,3.629,11.7,3.828,11z
	 M16.924,7.553c-0.175-0.35-0.529-0.542-0.896-0.543V6h-1v1.382l-2.791,1.396l-2.49-2.573C9.742,6.2,9.735,6.198,9.729,6.193
	C9.586,6.016,9.322,5.864,9.129,5.8l-2.5-0.6l-1.9,6.5c-0.2,1.2-0.2,2.1,1,3.1l3.3,2.718V23c0,0.553,0.447,1,1,1
	c0.554,0,1-0.447,1-1v-6c0-0.266-0.104-0.52-0.293-0.707l-0.157-0.157L8.228,13.1l1.083-4.469l1.998,2.064
	c0.194,0.2,0.454,0.305,0.719,0.305c0.152,0,0.306-0.035,0.447-0.105l2.553-1.277V24h1V9.118l0.447-0.224
	C16.969,8.647,17.171,8.047,16.924,7.553z M4.528,14.6l-0.5,3.2c0,0.002,0,0.005,0,0.009l-1.929,4.82
	c-0.205,0.514,0.044,1.096,0.557,1.301C2.778,23.979,2.904,24,3.028,24c0.397,0,0.772-0.236,0.93-0.629l1.926-4.816
	c0.065-0.104,0.118-0.22,0.145-0.354l0.4-1.4C5.129,15.7,4.528,15.3,4.528,14.6z"/>
</svg>
