<?xml version="1.0" encoding="utf-8"?>
<!-- Generator: Adobe Illustrator 16.0.4, SVG Export Plug-In . SVG Version: 6.00 Build 0)  -->
<!DOCTYPE svg PUBLIC "-//W3C//DTD SVG 1.1//EN" "http://www.w3.org/Graphics/SVG/1.1/DTD/svg11.dtd">
<svg version="1.1" id="Layer_1" xmlns="http://www.w3.org/2000/svg" xmlns:xlink="http://www.w3.org/1999/xlink" x="0px" y="0px"
	 width="20.607px" height="24px" viewBox="0 0 20.607 24" enable-background="new 0 0 20.607 24" xml:space="preserve">
<path d="M11,4.051V3H9v1.051C3.954,4.554,0,8.823,0,14c0,5.514,4.486,10,10,10c5.515,0,10-4.486,10-10
	C20,8.823,16.046,4.554,11,4.051z M10,22c-4.411,0-8-3.589-8-8s3.589-8,8-8s8,3.589,8,8S14.411,22,10,22z M12,14
	c0,1.104-0.896,2-2,2c-1.104,0-2-0.896-2-2c0-0.768,0.438-1.426,1.071-1.761L10,6.2l0.931,6.039C11.563,12.574,12,13.232,12,14z
	 M13,2H7V0h6V2z M19.193,7.607l-2.801-2.8l1.414-1.414l2.801,2.8L19.193,7.607z"/>
</svg>
